<svg width="64" height="64" fill="none" xmlns="http://www.w3.org/2000/svg"><path fill-rule="evenodd" clip-rule="evenodd" d="M32 0C14.314 0 0 14.336 0 32s14.336 32 32 32 32-14.336 32-32S49.686 0 32 0zm3.886 18.378l6.9 10.764-6.945.022.045-10.786zM32.09 5.203c-.18.179-2.368 2.635-3.15 8.04.983.178 2.055.267 3.15.29 1.093 0 2.165-.112 3.148-.29-.803-5.402-2.967-7.836-3.148-8.04zM10.138 42.54h6.52c2.569 0 4.623-2.054 4.623-4.578l-.067-6.409h3.26v7.436c0 .023-.067 1.474-.468 2.234-.804 1.496-1.876 2.635-3.283 3.483-1.54.938-2.925 1.117-4.913 1.117h-5.672V42.54zm0 6.9h6.52c6.343 0 11.501-5.136 11.523-11.455v-6.41h-3.305v7.437c0 .067-.067 1.585-.513 2.412-.826 1.54-1.943 2.746-3.417 3.64-1.63 1.004-3.06 1.183-5.136 1.183h-5.672v3.193zM28.16 29.164l-6.967-.022 7.056-10.764-.089 10.786zm2.412 2.59c.178 2.881 1.518 4.556 1.518 4.556s1.34-1.831 1.385-4.511c-.187 0-.38.005-.575.01-.201.007-.405.012-.609.012-.58 0-1.16-.022-1.72-.067zm1.675-.357c-1.273 0-2.524-.112-3.663-.313v-1.496a21.303 21.303 0 0 0 6.878.067v1.496c-1.027.157-2.099.246-3.215.246zm-.224-1.876c1.206-.022 2.367-.111 3.44-.312-.014-2.14.003-5.734.015-8.426.01-2.027.016-3.544.007-3.544 0-1.34-.09-2.523-.224-3.617-.982.178-2.076.268-3.193.29a18.06 18.06 0 0 1-3.193-.29 29.655 29.655 0 0 0-.224 3.617v.126c-.009 1.05-.067 8.361-.067 11.844 1.072.2 2.256.29 3.44.312zm21.84 19.92h-6.52c-6.343 0-11.523-5.137-11.523-11.479v-6.409h3.304v7.436c0 .068.068 1.586.514 2.412a9.257 9.257 0 0 0 3.417 3.64c1.607.983 3.059 1.184 5.136 1.184h5.672v3.215zm-5.65-3.596H53.884v-3.282h-6.52c-2.569 0-4.623-2.055-4.623-4.578l.067-6.41h-3.26v7.437s.067 1.474.469 2.233c.804 1.474 1.875 2.635 3.282 3.483 1.519.938 2.903 1.117 4.913 1.117z" fill="#fff"/></svg>